<?xml version="1.0" encoding="UTF-8" standalone="no"?>
<svg
   xmlns:dc="http://purl.org/dc/elements/1.1/"
   xmlns:cc="http://creativecommons.org/ns#"
   xmlns:rdf="http://www.w3.org/1999/02/22-rdf-syntax-ns#"
   xmlns:svg="http://www.w3.org/2000/svg"
   xmlns="http://www.w3.org/2000/svg"
   viewBox="0 0 1440 1440"
   height="1440"
   width="1440"
   xml:space="preserve"
   id="svg2"
   version="1.1"><metadata
     id="metadata8"><rdf:RDF><cc:Work
         rdf:about=""><dc:format>image/svg+xml</dc:format><dc:type
           rdf:resource="http://purl.org/dc/dcmitype/StillImage" /></cc:Work></rdf:RDF></metadata><defs
     id="defs6"><clipPath
       id="clipPath18"
       clipPathUnits="userSpaceOnUse"><path
         id="path16"
         d="M 0,1080 H 1080 V 0 H 0 Z" /></clipPath><clipPath
       id="clipPath34"
       clipPathUnits="userSpaceOnUse"><path
         id="path32"
         d="M 0,1080 H 1080 V 0 H 0 Z" /></clipPath></defs><g
     transform="matrix(1.3333333,0,0,-1.3333333,0,1440)"
     id="g10"><g
       id="g12"><g
         clip-path="url(#clipPath18)"
         id="g14"><g
           transform="translate(1080,540)"
           id="g20"><path
             id="path22"
             style="fill:#f1a6cd;fill-opacity:1;fill-rule:nonzero;stroke:none"
             d="m 0,0 c 0,-298.233 -241.766,-540 -540,-540 -298.234,0 -540,241.767 -540,540 0,298.234 241.766,540 540,540 C -241.766,540 0,298.234 0,0" /></g></g></g><text
       id="text26"
       style="font-variant:normal;font-weight:100;font-stretch:normal;font-size:60px;font-family:'Montserrat Thin';-inkscape-font-specification:Montserrat-Thin;writing-mode:lr-tb;fill:#ffffff;fill-opacity:1;fill-rule:nonzero;stroke:none"
       transform="matrix(1,0,0,-1,310.0137,240.3584)"><tspan
         id="tspan24"
         y="0"
         x="0 57.299999 94.019997 134.94 151.67999 185.94 221.82001 237.96001 280.56 317.28 358.20001 382.38 399.12 435 459.84 481.67999">Médica Pedriatra</tspan></text>
<g
       id="g28"><g
         clip-path="url(#clipPath34)"
         id="g30"><g
           transform="translate(286.4238,730.1846)"
           id="g36"><path
             id="path38"
             style="fill:#ffffff;fill-opacity:1;fill-rule:nonzero;stroke:none"
             d="m 0,0 c -4.275,0 -8.623,0.513 -13.04,1.539 -4.418,1.025 -8.691,2.536 -12.824,4.53 -4.133,1.996 -7.908,4.46 -11.327,7.396 -3.42,2.935 -6.299,6.313 -8.636,10.132 0.341,0.569 1.253,1.552 2.736,2.949 1.482,1.397 3.191,2.935 5.13,4.617 1.936,1.68 3.86,3.234 5.771,4.66 1.909,1.424 3.49,2.451 4.745,3.079 1.823,-2.11 3.776,-4.22 5.856,-6.328 2.08,-2.11 4.303,-4.005 6.669,-5.685 2.364,-1.682 4.916,-3.035 7.652,-4.062 2.736,-1.025 5.643,-1.538 8.721,-1.538 3.534,0 6.34,0.653 8.421,1.965 2.081,1.311 3.577,2.978 4.488,5.003 0.912,2.022 1.368,4.088 1.368,6.198 0,1.711 -0.427,3.335 -1.281,4.873 -0.855,1.539 -2.138,3.006 -3.848,4.403 -1.71,1.397 -3.835,2.765 -6.369,4.104 -2.537,1.339 -5.515,2.608 -8.935,3.805 -6.84,2.621 -13.025,5.4 -18.553,8.336 -5.528,2.935 -9.932,6.483 -13.209,10.645 -3.278,4.16 -4.917,9.374 -4.917,15.645 0,6.669 1.852,12.255 5.559,16.757 3.703,4.502 8.605,7.909 14.705,10.217 6.098,2.309 12.654,3.462 19.663,3.462 5.301,0 10.445,-0.585 15.433,-1.752 4.987,-1.168 9.647,-2.921 13.978,-5.258 4.332,-2.337 8.065,-5.273 11.2,-8.805 -0.855,-1.256 -2.194,-2.937 -4.017,-5.045 -1.825,-2.11 -3.763,-4.219 -5.815,-6.327 -2.052,-2.11 -3.79,-3.792 -5.214,-5.044 -2.281,2.223 -4.818,4.232 -7.61,6.028 -2.793,1.795 -5.728,3.219 -8.806,4.273 -3.077,1.054 -6.185,1.583 -9.319,1.583 -3.648,0 -6.726,-0.785 -9.234,-2.352 -2.509,-1.568 -3.762,-3.92 -3.762,-7.053 0,-1.426 0.327,-2.709 0.984,-3.847 0.654,-1.141 1.581,-2.168 2.778,-3.078 1.198,-0.913 2.62,-1.752 4.275,-2.523 1.652,-0.769 3.505,-1.496 5.557,-2.18 5.813,-1.938 11.356,-3.961 16.629,-6.07 5.272,-2.109 9.946,-4.545 14.022,-7.311 4.075,-2.764 7.28,-6.141 9.619,-10.13 2.336,-3.99 3.505,-8.863 3.505,-14.62 0,-5.416 -1.056,-10.388 -3.164,-14.919 C 37.475,17.741 34.525,13.808 30.735,10.473 26.944,7.14 22.442,4.559 17.227,2.736 12.011,0.913 6.268,0 0,0" /></g><g
           transform="translate(387.3921,754.2095)"
           id="g40"><path
             id="path42"
             style="fill:#ffffff;fill-opacity:1;fill-rule:nonzero;stroke:none"
             d="m 0,0 c 3.135,0 5.913,0.54 8.336,1.625 2.422,1.081 4.475,2.634 6.156,4.659 1.681,2.022 2.949,4.402 3.805,7.138 0.855,2.736 1.283,5.728 1.283,8.977 0,5.073 -0.727,9.562 -2.18,13.466 -1.455,3.904 -3.591,6.953 -6.413,9.148 -2.822,2.195 -6.313,3.292 -10.473,3.292 -4.504,0 -8.181,-1.14 -11.029,-3.42 -2.851,-2.28 -4.946,-5.258 -6.284,-8.934 -1.341,-3.676 -2.01,-7.596 -2.01,-11.756 0,-7.01 1.61,-12.796 4.831,-17.355 C -10.758,2.278 -6.098,0 0,0 m 0.94,-24.538 c -15.104,0 -26.474,4.003 -34.112,12.013 -7.639,8.006 -11.456,19.649 -11.456,34.924 0,10.203 1.967,18.682 5.899,25.436 3.933,6.754 9.389,11.842 16.372,15.262 6.982,3.42 15.061,5.129 24.239,5.129 9.347,0 17.112,-2.137 23.298,-6.413 C 31.363,57.538 35.995,51.64 39.073,44.116 42.15,36.592 43.69,27.9 43.69,18.039 43.69,9.432 42.035,1.937 38.73,-4.447 35.424,-10.83 30.595,-15.775 24.238,-19.28 17.884,-22.785 10.118,-24.538 0.94,-24.538" /></g><g
           transform="translate(492.4678,735.5718)"
           id="g44"><path
             id="path46"
             style="fill:#ffffff;fill-opacity:1;fill-rule:nonzero;stroke:none"
             d="m 0,0 c -1.597,-1.711 -4.573,-3.378 -8.934,-5.003 -4.36,-1.624 -9.22,-2.436 -14.577,-2.436 -6.955,0 -12.241,1.624 -15.86,4.873 -3.62,3.248 -6.057,7.85 -7.309,13.808 -1.255,5.956 -1.883,12.895 -1.883,20.818 0,6.212 0.057,12.453 0.172,18.724 0.114,6.269 0.27,12.482 0.471,18.638 0.198,6.157 0.427,12.127 0.684,17.911 0.256,5.784 0.512,11.287 0.769,16.501 0.256,5.216 0.527,9.989 0.812,14.321 4.046,0.285 7.78,0.428 11.2,0.428 2.224,0 4.416,-0.058 6.584,-0.172 2.164,-0.114 4.559,-0.285 7.181,-0.513 -0.287,-4.957 -0.613,-10.444 -0.983,-16.457 -0.372,-6.014 -0.713,-12.155 -1.026,-18.425 -0.314,-6.27 -0.613,-12.341 -0.898,-18.21 -0.285,-5.871 -0.5,-11.188 -0.641,-15.946 -0.142,-4.759 -0.215,-8.565 -0.215,-11.413 0,-3.707 0.158,-7.139 0.472,-10.303 0.312,-3.164 1.039,-5.728 2.179,-7.694 1.139,-1.967 2.85,-2.951 5.13,-2.951 1.938,0 3.519,0.442 4.746,1.327 1.224,0.882 2.237,2.008 3.034,3.376 0.399,-0.683 1.027,-2.039 1.881,-4.06 0.855,-2.025 1.795,-4.263 2.822,-6.712 C -3.164,7.979 -2.252,5.77 -1.453,3.804 -0.655,1.837 -0.171,0.568 0,0" /></g><g
           transform="translate(524.5264,789.0923)"
           id="g48"><path
             id="path50"
             style="fill:#ffffff;fill-opacity:1;fill-rule:nonzero;stroke:none"
             d="m 0,0 c 2.566,0.397 5.729,0.769 9.491,1.112 3.761,0.341 8.122,0.512 13.081,0.512 2.678,0 5.057,-0.03 7.138,-0.086 2.081,-0.057 3.548,-0.114 4.404,-0.17 0,1.196 -0.172,2.507 -0.513,3.932 -0.456,1.937 -1.355,3.791 -2.692,5.557 -1.341,1.766 -3.051,3.191 -5.131,4.276 -2.081,1.081 -4.574,1.624 -7.481,1.624 -3.648,0 -6.826,-0.799 -9.533,-2.395 C 6.057,12.767 3.961,10.686 2.48,8.122 0.998,5.557 0.171,2.848 0,0 m 57.369,-42.235 c -1.596,-1.939 -3.59,-3.848 -5.985,-5.729 -2.393,-1.88 -5.258,-3.578 -8.592,-5.087 -3.334,-1.511 -7.139,-2.708 -11.414,-3.592 -4.274,-0.884 -9.062,-1.325 -14.363,-1.325 -8.608,0 -16.244,1.639 -22.913,4.917 -6.669,3.277 -11.872,8.15 -15.604,14.62 -3.734,6.469 -5.6,14.519 -5.6,24.152 0,9.632 1.938,18.026 5.814,25.18 3.875,7.152 9.29,12.709 16.244,16.671 6.954,3.961 15.077,5.943 24.368,5.943 11.74,0 20.989,-3.265 27.743,-9.789 6.753,-6.528 10.273,-15.548 10.558,-27.061 0.058,-2.11 0.029,-4.018 -0.085,-5.728 -0.116,-1.71 -0.341,-3.534 -0.684,-5.473 -0.856,0.057 -2.68,0.114 -5.472,0.172 -2.792,0.056 -5.942,0.128 -9.446,0.215 -3.507,0.085 -6.813,0.155 -9.919,0.212 -3.106,0.057 -5.4,0.085 -6.882,0.085 -4.96,0 -9.762,-0.227 -14.406,-0.684 -4.647,-0.456 -8.536,-0.94 -11.671,-1.453 0,-1.025 0.072,-2.039 0.214,-3.035 0.142,-0.998 0.356,-1.953 0.641,-2.864 0.74,-2.338 2.038,-4.332 3.891,-5.985 1.85,-1.653 4.074,-2.922 6.669,-3.804 2.592,-0.885 5.342,-1.325 8.25,-1.325 2.62,0 5.029,0.327 7.224,0.983 2.193,0.654 4.203,1.524 6.028,2.608 1.823,1.081 3.49,2.265 5.001,3.548 1.509,1.282 2.92,2.551 4.232,3.805 0.341,-0.287 1.226,-1.126 2.651,-2.523 1.423,-1.397 3.02,-3.107 4.787,-5.129 1.767,-2.025 3.449,-4.147 5.044,-6.371 1.596,-2.222 2.823,-4.274 3.677,-6.154" /></g><g
           transform="translate(636.7817,756.4312)"
           id="g52"><path
             id="path54"
             style="fill:#ffffff;fill-opacity:1;fill-rule:nonzero;stroke:none"
             d="m 0,0 c 2.507,0 4.815,0.285 6.925,0.855 2.108,0.569 4.046,1.354 5.813,2.352 1.767,0.997 3.321,2.08 4.66,3.249 1.339,1.168 2.465,2.351 3.377,3.548 v 4.232 c 0,1.681 0.015,3.377 0.043,5.088 0.029,1.709 0.057,3.333 0.085,4.873 0.029,1.539 0.072,2.736 0.13,3.59 -1.256,1.198 -2.992,2.365 -5.216,3.506 -2.223,1.139 -4.66,2.065 -7.311,2.778 -2.65,0.713 -5.342,1.068 -8.078,1.068 -5.588,0 -9.933,-1.666 -13.039,-5.001 -3.107,-3.333 -4.659,-7.652 -4.659,-12.953 0,-5.585 1.497,-9.847 4.489,-12.781 C -9.789,1.467 -5.53,0 0,0 m 21.802,-24.623 c -0.115,0.798 -0.2,1.937 -0.257,3.421 -0.057,1.481 -0.101,3.005 -0.128,4.573 -0.03,1.568 -0.043,2.836 -0.043,3.806 -0.684,-0.97 -1.752,-2.124 -3.206,-3.463 -1.454,-1.341 -3.322,-2.666 -5.6,-3.976 -2.28,-1.312 -5.044,-2.408 -8.293,-3.292 -3.25,-0.884 -7.04,-1.325 -11.371,-1.325 -7.181,0 -13.366,1.738 -18.553,5.216 -5.187,3.476 -9.178,8.221 -11.97,14.234 -2.793,6.014 -4.189,12.782 -4.189,20.306 0,7.409 1.41,14.321 4.233,20.733 2.821,6.412 7.053,11.598 12.696,15.561 5.642,3.96 12.738,5.941 21.288,5.941 4.275,0 8.164,-0.485 11.671,-1.453 3.505,-0.971 6.483,-2.18 8.934,-3.633 2.449,-1.454 4.189,-2.922 5.215,-4.403 0.17,3.133 0.398,6.739 0.685,10.814 0.283,4.075 0.611,8.264 0.983,12.568 0.37,4.303 0.726,8.392 1.068,12.269 0.342,3.875 0.641,7.196 0.897,9.961 0.257,2.765 0.441,4.602 0.556,5.515 3.305,0 7.025,-0.186 11.158,-0.556 4.132,-0.371 7.793,-0.984 10.985,-1.839 C 47.592,83.303 46.823,70.264 46.253,57.24 45.683,44.215 45.298,30.909 45.1,17.313 44.899,3.72 44.8,-10.515 44.8,-25.391 c -1.312,0 -3.462,0.029 -6.456,0.084 -2.992,0.058 -6.056,0.143 -9.19,0.257 -3.134,0.115 -5.587,0.256 -7.352,0.427" /></g><g
           transform="translate(742.625,750.1904)"
           id="g56"><path
             id="path58"
             style="fill:#ffffff;fill-opacity:1;fill-rule:nonzero;stroke:none"
             d="m 0,0 c 2.678,0 5.429,0.413 8.25,1.24 2.822,0.825 5.387,1.866 7.695,3.12 2.308,1.253 4.09,2.536 5.344,3.848 -0.116,1.765 -0.215,3.591 -0.3,5.472 -0.086,1.881 -0.1,3.476 -0.043,4.788 -1.254,0.512 -3.633,1.069 -7.138,1.666 -3.506,0.599 -7.168,0.899 -10.987,0.899 -3.478,0 -6.727,-0.372 -9.746,-1.112 -3.023,-0.742 -5.487,-1.88 -7.396,-3.42 -1.911,-1.54 -2.864,-3.535 -2.864,-5.985 0,-2.622 0.713,-4.701 2.137,-6.241 1.424,-1.539 3.42,-2.636 5.985,-3.292 C -6.498,0.328 -3.478,0 0,0 m -5.729,-20.091 c -7.011,0 -13.423,0.955 -19.236,2.864 -5.814,1.908 -10.445,5.014 -13.894,9.318 -3.449,4.303 -5.172,10.017 -5.172,17.142 0,7.125 2.009,12.868 6.028,17.228 4.017,4.361 9.318,7.524 15.901,9.49 6.584,1.967 13.666,2.951 21.247,2.951 2.963,0 5.814,-0.229 8.549,-0.684 2.736,-0.458 5.143,-0.998 7.224,-1.625 2.081,-0.628 3.577,-1.227 4.489,-1.795 -0.056,1.481 -0.356,3.048 -0.897,4.701 -0.543,1.653 -1.298,3.049 -2.265,4.191 -1.711,2.335 -4.034,4.288 -6.969,5.856 -2.936,1.567 -6.797,2.35 -11.585,2.35 -4.845,0 -9.119,-1.097 -12.824,-3.292 -3.705,-2.194 -6.528,-4.658 -8.465,-7.394 l -20.861,13.422 c 2.565,3.648 6.028,6.84 10.388,9.576 4.361,2.736 9.32,4.873 14.877,6.413 5.557,1.539 11.384,2.308 17.483,2.308 10.089,0 18.268,-1.653 24.538,-4.959 6.27,-3.307 10.915,-7.923 13.936,-13.85 1.424,-2.852 2.593,-5.985 3.505,-9.405 0.912,-3.42 1.54,-7.353 1.882,-11.798 0.226,-3.82 0.397,-7.383 0.513,-10.688 0.113,-3.306 0.227,-6.441 0.341,-9.404 0.114,-4.332 0.599,-7.155 1.454,-8.465 0.855,-1.312 2.08,-1.965 3.677,-1.965 1.48,0 2.806,0.412 3.974,1.24 1.168,0.824 1.924,1.922 2.267,3.29 l 8.892,-17.014 c -0.628,-2.622 -2.395,-4.817 -5.302,-6.582 -2.906,-1.768 -6.583,-2.651 -11.029,-2.651 -3.249,0 -6.326,0.556 -9.233,1.668 -2.906,1.111 -5.301,2.62 -7.182,4.531 -1.88,1.908 -2.992,4.088 -3.335,6.541 -0.912,-2.168 -2.821,-4.29 -5.729,-6.371 -2.905,-2.081 -6.639,-3.79 -11.198,-5.129 -4.561,-1.339 -9.89,-2.009 -15.989,-2.009" /></g><g
           transform="translate(849.666,756.4312)"
           id="g60"><path
             id="path62"
             style="fill:#ffffff;fill-opacity:1;fill-rule:nonzero;stroke:none"
             d="m 0,0 c 2.507,0 4.815,0.285 6.925,0.855 2.108,0.569 4.046,1.354 5.813,2.352 1.767,0.997 3.321,2.08 4.66,3.249 1.339,1.168 2.465,2.351 3.377,3.548 v 4.232 c 0,1.681 0.015,3.377 0.043,5.088 0.029,1.709 0.056,3.333 0.085,4.873 0.029,1.539 0.072,2.736 0.13,3.59 -1.256,1.198 -2.992,2.365 -5.216,3.506 -2.223,1.139 -4.66,2.065 -7.311,2.778 -2.65,0.713 -5.342,1.068 -8.078,1.068 -5.588,0 -9.933,-1.666 -13.04,-5.001 -3.106,-3.333 -4.658,-7.652 -4.658,-12.953 0,-5.585 1.496,-9.847 4.489,-12.781 C -9.789,1.467 -5.53,0 0,0 m 21.802,-24.623 c -0.115,0.798 -0.2,1.937 -0.257,3.421 -0.057,1.481 -0.101,3.005 -0.128,4.573 -0.03,1.568 -0.043,2.836 -0.043,3.806 -0.684,-0.97 -1.752,-2.124 -3.206,-3.463 -1.454,-1.341 -3.322,-2.666 -5.6,-3.976 -2.28,-1.312 -5.044,-2.408 -8.293,-3.292 -3.25,-0.884 -7.04,-1.325 -11.371,-1.325 -7.181,0 -13.366,1.738 -18.553,5.216 -5.187,3.476 -9.178,8.221 -11.97,14.234 -2.793,6.014 -4.189,12.782 -4.189,20.306 0,7.409 1.41,14.321 4.233,20.733 2.821,6.412 7.053,11.598 12.696,15.561 5.642,3.96 12.738,5.941 21.288,5.941 4.275,0 8.164,-0.485 11.671,-1.453 3.505,-0.971 6.483,-2.18 8.934,-3.633 2.449,-1.454 4.189,-2.922 5.215,-4.403 0.17,3.133 0.397,6.739 0.685,10.814 0.283,4.075 0.611,8.264 0.983,12.568 0.37,4.303 0.726,8.392 1.068,12.269 0.342,3.875 0.641,7.196 0.897,9.961 0.257,2.765 0.441,4.602 0.556,5.515 3.305,0 7.024,-0.186 11.158,-0.556 4.132,-0.371 7.793,-0.984 10.985,-1.839 C 47.592,83.303 46.823,70.264 46.253,57.24 45.683,44.215 45.298,30.909 45.1,17.313 44.899,3.72 44.8,-10.515 44.8,-25.391 c -1.312,0 -3.462,0.029 -6.456,0.084 -2.992,0.058 -6.056,0.143 -9.19,0.257 -3.134,0.115 -5.587,0.256 -7.352,0.427" /></g><g
           transform="translate(310.0132,619.3394)"
           id="g64"><path
             id="path66"
             style="fill:#ffffff;fill-opacity:1;fill-rule:nonzero;stroke:none"
             d="m 0,0 c 1.311,0.226 3.362,0.482 6.156,0.769 2.792,0.285 5.698,0.513 8.721,0.684 3.019,0.172 5.472,0.285 7.352,0.341 -0.115,1.198 -0.243,3.463 -0.384,6.797 -0.142,3.335 -0.328,6.983 -0.556,10.944 -0.229,3.962 -0.442,7.609 -0.641,10.944 -0.201,3.334 -0.386,5.627 -0.555,6.882 -0.913,0 -2.281,-0.058 -4.104,-0.17 C 14.164,37.076 12.397,36.962 10.688,36.848 8.977,36.733 7.781,36.619 7.097,36.507 6.754,34.852 6.284,32.559 5.685,29.624 5.088,26.687 4.445,23.426 3.761,19.834 3.077,16.243 2.408,12.724 1.752,9.275 1.098,5.826 0.513,2.734 0,0 m -9.148,-54.89 c -1.426,0 -3.392,0.043 -5.898,0.128 -2.511,0.087 -5.204,0.171 -8.08,0.258 -2.879,0.085 -5.672,0.186 -8.38,0.298 -2.707,0.115 -4.945,0.229 -6.71,0.343 0.626,3.533 1.496,8.036 2.606,13.509 1.112,5.471 2.408,11.541 3.891,18.209 1.482,6.669 3.049,13.638 4.702,20.905 1.653,7.266 3.362,14.491 5.131,21.674 1.765,7.181 3.476,13.991 5.129,20.433 1.653,6.44 3.191,12.168 4.616,17.184 5.758,0.74 11.443,1.353 17.058,1.839 5.612,0.484 11.072,0.727 16.372,0.727 3.02,0 6.041,-0.086 9.062,-0.256 3.021,-0.172 6.014,-0.459 8.977,-0.856 1.083,-5.017 2.194,-10.773 3.335,-17.27 1.139,-6.499 2.294,-14.151 3.463,-22.956 1.166,-8.806 2.336,-19.151 3.505,-31.035 1.168,-11.885 2.352,-25.722 3.549,-41.51 -1.881,-0.227 -4.561,-0.482 -8.037,-0.769 -3.478,-0.283 -7.111,-0.498 -10.901,-0.64 -3.792,-0.143 -7.168,-0.215 -10.132,-0.215 -0.115,1.653 -0.213,3.534 -0.299,5.643 -0.085,2.108 -0.186,4.361 -0.298,6.754 -0.116,2.395 -0.215,4.817 -0.3,7.267 -0.087,2.452 -0.158,4.816 -0.214,7.097 -0.058,2.279 -0.114,4.389 -0.17,6.327 -1.827,-0.057 -3.792,-0.128 -5.9,-0.214 -2.11,-0.085 -4.232,-0.2 -6.369,-0.341 -2.139,-0.144 -4.147,-0.287 -6.028,-0.428 -1.881,-0.143 -3.535,-0.3 -4.96,-0.471 -1.425,-0.172 -2.45,-0.314 -3.077,-0.428 -0.855,-3.877 -1.655,-7.78 -2.394,-11.713 -0.741,-3.933 -1.397,-7.594 -1.966,-10.985 -0.571,-3.392 -0.998,-6.229 -1.283,-8.508" /></g><g
           transform="translate(424.2373,569.7515)"
           id="g68"><path
             id="path70"
             style="fill:#ffffff;fill-opacity:1;fill-rule:nonzero;stroke:none"
             d="m 0,0 c -1.597,-1.711 -4.573,-3.378 -8.934,-5.003 -4.36,-1.624 -9.22,-2.436 -14.577,-2.436 -6.955,0 -12.241,1.624 -15.86,4.873 -3.62,3.248 -6.057,7.851 -7.31,13.808 -1.254,5.956 -1.882,12.895 -1.882,20.818 0,6.212 0.057,12.453 0.172,18.725 0.114,6.268 0.27,12.482 0.471,18.637 0.198,6.157 0.427,12.127 0.684,17.911 0.256,5.785 0.512,11.287 0.769,16.501 0.256,5.216 0.527,9.99 0.812,14.321 4.046,0.285 7.78,0.428 11.2,0.428 2.224,0 4.416,-0.058 6.584,-0.172 2.164,-0.113 4.559,-0.285 7.181,-0.512 -0.287,-4.958 -0.613,-10.444 -0.983,-16.458 -0.372,-6.013 -0.713,-12.155 -1.026,-18.425 -0.314,-6.27 -0.613,-12.341 -0.898,-18.21 -0.285,-5.871 -0.5,-11.188 -0.641,-15.945 -0.142,-4.759 -0.215,-8.566 -0.215,-11.414 0,-3.706 0.157,-7.139 0.471,-10.303 0.313,-3.164 1.04,-5.728 2.18,-7.694 1.139,-1.967 2.85,-2.95 5.13,-2.95 1.938,0 3.519,0.441 4.746,1.326 1.224,0.882 2.237,2.008 3.034,3.377 0.399,-0.684 1.027,-2.04 1.881,-4.061 0.855,-2.025 1.795,-4.263 2.822,-6.712 C -3.164,7.979 -2.252,5.77 -1.453,3.805 -0.655,1.837 -0.171,0.569 0,0" /></g><g
           transform="translate(456.2959,623.272)"
           id="g72"><path
             id="path74"
             style="fill:#ffffff;fill-opacity:1;fill-rule:nonzero;stroke:none"
             d="m 0,0 c 2.566,0.397 5.729,0.769 9.491,1.112 3.761,0.341 8.122,0.513 13.081,0.513 2.678,0 5.057,-0.031 7.138,-0.087 2.081,-0.056 3.548,-0.114 4.404,-0.17 0,1.196 -0.172,2.507 -0.513,3.933 -0.456,1.936 -1.355,3.79 -2.692,5.556 -1.341,1.766 -3.051,3.192 -5.131,4.276 -2.081,1.081 -4.574,1.624 -7.481,1.624 -3.648,0 -6.826,-0.799 -9.533,-2.394 C 6.057,12.767 3.961,10.686 2.48,8.122 0.998,5.557 0.171,2.848 0,0 m 57.369,-42.235 c -1.596,-1.938 -3.59,-3.848 -5.985,-5.728 -2.393,-1.881 -5.258,-3.579 -8.593,-5.088 -3.333,-1.511 -7.138,-2.707 -11.413,-3.592 -4.274,-0.884 -9.062,-1.324 -14.363,-1.324 -8.608,0 -16.244,1.638 -22.913,4.916 -6.669,3.277 -11.872,8.15 -15.604,14.62 -3.734,6.469 -5.6,14.52 -5.6,24.152 0,9.632 1.938,18.026 5.814,25.18 3.875,7.152 9.29,12.709 16.244,16.671 6.954,3.961 15.077,5.943 24.368,5.943 11.74,0 20.989,-3.265 27.743,-9.789 6.753,-6.528 10.272,-15.548 10.558,-27.061 0.058,-2.11 0.028,-4.018 -0.085,-5.728 -0.116,-1.709 -0.341,-3.534 -0.684,-5.473 -0.856,0.057 -2.68,0.114 -5.472,0.172 -2.792,0.056 -5.942,0.128 -9.446,0.215 -3.507,0.085 -6.813,0.155 -9.919,0.212 -3.106,0.057 -5.4,0.085 -6.882,0.085 -4.96,0 -9.762,-0.227 -14.406,-0.684 -4.647,-0.456 -8.536,-0.94 -11.671,-1.452 0,-1.026 0.072,-2.039 0.214,-3.036 0.142,-0.998 0.356,-1.953 0.641,-2.864 0.74,-2.337 2.038,-4.332 3.891,-5.985 1.85,-1.653 4.074,-2.921 6.669,-3.804 2.592,-0.885 5.342,-1.325 8.25,-1.325 2.62,0 5.029,0.327 7.224,0.983 2.193,0.654 4.203,1.524 6.028,2.608 1.823,1.082 3.49,2.265 5.001,3.549 1.509,1.281 2.92,2.55 4.232,3.804 0.341,-0.287 1.226,-1.126 2.651,-2.523 1.423,-1.397 3.02,-3.107 4.787,-5.129 1.767,-2.025 3.449,-4.147 5.044,-6.371 1.596,-2.222 2.823,-4.273 3.677,-6.154" /></g><g
           transform="translate(743.2227,641.1089)"
           id="g76"><path
             id="path78"
             style="fill:#ffffff;fill-opacity:1;fill-rule:nonzero;stroke:none"
             d="m 0,0 c 1.31,2.565 3.319,5.014 6.026,7.353 2.707,2.335 5.929,4.245 9.663,5.728 3.732,1.482 7.707,2.222 11.926,2.222 2.565,0 5.158,-0.256 7.78,-0.769 2.621,-0.513 4.532,-1.197 5.729,-2.052 l -5.301,-27.187 c -1.254,0.513 -2.879,1.081 -4.873,1.709 -1.996,0.626 -4.276,0.94 -6.84,0.94 -2.622,0 -5.173,-0.442 -7.652,-1.324 -2.48,-0.885 -4.775,-2.124 -6.884,-3.72 -2.108,-1.595 -3.961,-3.505 -5.556,-5.728 0.568,-3.307 1.211,-7.523 1.923,-12.653 0.713,-5.13 1.381,-10.403 2.009,-15.817 0.626,-5.416 1.141,-10.346 1.539,-14.791 0.399,-4.447 0.599,-7.695 0.599,-9.747 -3.99,-0.513 -8.607,-0.854 -13.851,-1.025 -5.244,-0.172 -10.289,-0.228 -15.133,-0.172 0,4.788 -0.128,10.23 -0.384,16.33 -0.257,6.098 -0.614,12.467 -1.069,19.109 -0.456,6.639 -1.012,13.195 -1.668,19.664 -0.654,6.469 -1.396,12.468 -2.221,17.997 -0.828,5.527 -1.697,10.23 -2.608,14.107 2.736,0.798 5.756,1.539 9.062,2.223 3.305,0.684 6.297,1.24 8.977,1.668 2.678,0.426 4.389,0.668 5.131,0.726 0.684,-1.596 1.452,-3.948 2.308,-7.054 C -0.514,4.63 -0.058,2.052 0,0" /></g><g
           transform="translate(816.5791,622.0435)"
           id="g80"><path
             id="path82"
             style="fill:#ffffff;fill-opacity:1;fill-rule:nonzero;stroke:none"
             d="m 0,0 c 2.566,0.397 5.729,0.769 9.491,1.112 3.761,0.341 8.122,0.513 13.081,0.513 2.679,0 5.057,-0.031 7.138,-0.087 2.082,-0.056 3.549,-0.114 4.404,-0.17 0,1.196 -0.172,2.507 -0.512,3.933 -0.457,1.936 -1.356,3.79 -2.693,5.556 -1.341,1.766 -3.051,3.191 -5.131,4.276 -2.081,1.081 -4.573,1.624 -7.481,1.624 -3.648,0 -6.826,-0.799 -9.533,-2.395 C 6.057,12.767 3.962,10.686 2.48,8.122 0.998,5.557 0.172,2.848 0,0 m 57.369,-42.235 c -1.596,-1.939 -3.59,-3.848 -5.985,-5.729 -2.393,-1.88 -5.258,-3.578 -8.592,-5.087 -3.334,-1.511 -7.139,-2.707 -11.414,-3.592 -4.274,-0.884 -9.062,-1.324 -14.362,-1.324 -8.609,0 -16.245,1.638 -22.914,4.916 -6.668,3.277 -11.872,8.15 -15.604,14.62 -3.734,6.469 -5.6,14.52 -5.6,24.152 0,9.632 1.938,18.026 5.815,25.18 3.875,7.152 9.289,12.709 16.243,16.671 6.954,3.961 15.077,5.943 24.368,5.943 11.74,0 20.989,-3.265 27.743,-9.789 6.753,-6.528 10.273,-15.548 10.558,-27.061 0.058,-2.11 0.029,-4.018 -0.085,-5.728 -0.115,-1.709 -0.341,-3.534 -0.684,-5.473 -0.856,0.057 -2.68,0.114 -5.472,0.172 -2.792,0.056 -5.942,0.128 -9.446,0.215 -3.507,0.085 -6.813,0.155 -9.919,0.212 -3.106,0.057 -5.4,0.085 -6.882,0.085 -4.959,0 -9.762,-0.227 -14.406,-0.684 -4.647,-0.456 -8.536,-0.94 -11.671,-1.452 0,-1.026 0.072,-2.04 0.214,-3.036 0.142,-0.998 0.356,-1.953 0.642,-2.864 0.739,-2.337 2.037,-4.332 3.89,-5.985 1.851,-1.653 4.074,-2.921 6.669,-3.804 2.592,-0.885 5.342,-1.325 8.25,-1.325 2.62,0 5.029,0.327 7.224,0.983 2.193,0.654 4.203,1.524 6.028,2.608 1.823,1.082 3.491,2.265 5.001,3.549 1.509,1.281 2.92,2.55 4.232,3.804 0.342,-0.287 1.226,-1.126 2.651,-2.523 1.423,-1.397 3.02,-3.107 4.787,-5.129 1.767,-2.025 3.449,-4.147 5.044,-6.371 1.596,-2.222 2.823,-4.273 3.677,-6.154" /></g><g
           transform="translate(623.2676,518.6689)"
           id="g84"><path
             id="path86"
             style="fill:#ffffff;fill-opacity:1;fill-rule:nonzero;stroke:none"
             d="m 0,0 c -7.363,-1.56 -9.174,-2.154 -12.023,-1.396 -48.456,6.355 -76.006,56.316 -75.849,138.859 0.013,7.9 3.153,15.274 8.842,20.757 5.698,5.487 13.193,8.358 21.097,8.07 l 15.837,-0.562 c 2.892,2.554 6.71,4.075 10.871,3.927 8.622,-0.306 15.365,-7.545 15.058,-16.168 -0.306,-8.623 -7.544,-15.365 -16.167,-15.059 -4.162,0.148 -7.861,1.935 -10.565,4.688 l -15.838,0.562 c -2.324,0.074 -3.874,-1.065 -4.594,-1.755 -0.714,-0.687 -1.908,-2.188 -1.918,-4.5 -0.064,-34.501 1.546,-114.634 57.405,-116.62 l -11.574,-0.316 c 49.452,-1.765 70.652,34.935 72.765,65.443 0.143,2.046 -0.825,3.447 -1.411,4.1 -0.588,0.657 -1.888,1.769 -3.949,1.839 L 35.079,92.33 c -2.558,-2.237 -5.919,-3.571 -9.583,-3.44 -7.644,0.27 -13.621,6.687 -13.349,14.331 0.271,7.643 6.688,13.62 14.332,13.348 3.712,-0.131 7.013,-1.732 9.413,-4.198 l 12.806,-0.455 c 7.01,-0.248 13.45,-3.254 18.146,-8.463 4.684,-5.204 7.5,-11.973 6.517,-18.909 C 62.329,6.714 6.32,-0.237 -16.307,-2.154" /></g><g
           transform="translate(262.0205,493.8477)"
           id="g88"><path
             id="path90"
             style="fill:#ffffff;fill-opacity:1;fill-rule:nonzero;stroke:none"
             d="m 0,0 c 0,-22.16 -17.964,-40.124 -40.124,-40.124 -22.16,0 -40.124,17.964 -40.124,40.124 0,22.16 17.964,40.124 40.124,40.124 C -17.964,40.124 0,22.16 0,0" /></g><g
           transform="translate(240.5972,493.8477)"
           id="g92"><path
             id="path94"
             style="fill:#f1a6cd;fill-opacity:1;fill-rule:nonzero;stroke:none"
             d="m 0,0 c 0,-10.328 -8.373,-18.7 -18.701,-18.7 -10.327,0 -18.7,8.372 -18.7,18.7 0,10.328 8.373,18.7 18.7,18.7 C -8.373,18.7 0,10.328 0,0" /></g><g
           transform="translate(223.1699,461.4932)"
           id="g96"><path
             id="path98"
             style="fill:none;stroke:#ffffff;stroke-width:14;stroke-linecap:round;stroke-linejoin:miter;stroke-miterlimit:10;stroke-dasharray:none;stroke-opacity:1"
             d="m 0,0 c -6.149,-66.866 11.1,-86.555 27.644,-92.373 37.763,-13.283 79.042,43.173 159.937,42.52 75.979,-0.612 107.773,-50.966 148.089,-41.054 26.886,6.61 52.665,38.818 52.404,146.687" /></g></g></g></g></svg>